<?xml version="1.0" encoding="UTF-8"?> <svg xmlns="http://www.w3.org/2000/svg" xmlns:xlink="http://www.w3.org/1999/xlink" version="1.1" id="Слой_1" x="0px" y="0px" viewBox="0 0 180 60" style="enable-background:new 0 0 180 60;" xml:space="preserve"> <style type="text/css"> .st0{fill:#005D7A;} .st1{fill:#181A30;} .st2{fill:#FF6700;} </style> <g> <path class="st0" d="M2.19,28.23c0-5.52,4.27-9.61,10.06-9.61c5.79,0,10.06,4.06,10.06,9.61s-4.27,9.61-10.06,9.61 C6.46,37.84,2.19,33.75,2.19,28.23z M18.82,28.23c0-3.82-2.8-6.56-6.56-6.56s-6.56,2.75-6.56,6.56c0,3.82,2.8,6.56,6.56,6.56 S18.82,32.04,18.82,28.23z"></path> <path class="st1" d="M28.33,18.89h-7.67c0.82,0.87,1.53,1.86,2.09,2.94h5.42c4.16,0,6.86,2.54,6.86,6.4c0,3.87-2.7,6.4-6.86,6.4 h-5.42c-0.56,1.08-1.26,2.06-2.09,2.94h7.67c6.06,0,10.19-3.74,10.19-9.34C38.53,22.63,34.39,18.89,28.33,18.89z"></path> <path class="st0" d="M38.63,19.02v2.9h6.11v15.53h3.42V23.62l0,0l-1.71-1.71h7.82v-2.9H38.63z"></path> <path class="st0" d="M56.09,19.02h3.42v18.43h-3.42V23.62l1.71-1.71h-1.71V19.02z"></path> <g> <path class="st1" d="M80,19.02c0.61,0,1.17,0.1,1.69,0.31c0.52,0.2,0.97,0.49,1.36,0.87c0.39,0.37,0.69,0.8,0.91,1.3 c0.22,0.49,0.32,1.03,0.32,1.62c0,0.58-0.11,1.12-0.32,1.62c-0.22,0.5-0.52,0.94-0.91,1.31c-0.39,0.38-0.84,0.67-1.36,0.88 c-0.52,0.21-1.08,0.31-1.69,0.31c-0.61,0-1.17-0.1-1.69-0.31c-0.52-0.21-0.97-0.5-1.36-0.88c-0.39-0.38-0.69-0.81-0.9-1.31 c-0.22-0.5-0.32-1.04-0.32-1.62c0-0.58,0.11-1.13,0.32-1.62c0.22-0.5,0.52-0.93,0.9-1.3c0.39-0.37,0.84-0.65,1.36-0.86 C78.83,19.12,79.39,19.02,80,19.02z M80.02,20.53c-0.33,0-0.65,0.06-0.95,0.19c-0.3,0.13-0.56,0.31-0.79,0.55 c-0.22,0.24-0.4,0.51-0.53,0.82c-0.13,0.31-0.19,0.65-0.19,1.01c0,0.36,0.06,0.7,0.19,1.02c0.13,0.32,0.31,0.59,0.54,0.83 c0.23,0.24,0.49,0.43,0.79,0.56c0.3,0.13,0.61,0.2,0.95,0.2c0.33,0,0.65-0.07,0.94-0.2c0.29-0.13,0.55-0.32,0.77-0.56 c0.22-0.24,0.39-0.52,0.52-0.83c0.13-0.31,0.19-0.65,0.19-1.02c0-0.36-0.06-0.7-0.19-1.01c-0.13-0.31-0.3-0.58-0.52-0.82 c-0.22-0.24-0.48-0.42-0.77-0.55C80.67,20.59,80.36,20.53,80.02,20.53z"></path> <path class="st1" d="M85.47,19.13h1.8v6.46h3.4v1.51h-5.2V19.13z"></path> <path class="st1" d="M91.75,19.13h2l2.48,4.96l2.46-4.96h1.99v7.97h-1.62v-5.49l-2.27,4.68h-1.16l-2.28-4.68v5.49h-1.62V19.13z"></path> <path class="st1" d="M105.01,19.13h1.84l3.39,7.97h-1.91l-2.46-6.17l-2.47,6.17h-1.87L105.01,19.13z M103.48,24.1h4.7v1.4h-4.7 V24.1z"></path> <path class="st1" d="M111.09,19.13h1.8v6.46h3.4v1.51h-5.2V19.13z"></path> <path class="st1" d="M117.38,19.13h1.8v7.97h-1.8V19.13z"></path> <path class="st1" d="M124.65,19.02c0.61,0,1.17,0.1,1.69,0.31c0.52,0.2,0.97,0.49,1.36,0.87c0.39,0.37,0.69,0.8,0.91,1.3 c0.22,0.49,0.32,1.03,0.32,1.62c0,0.58-0.11,1.12-0.32,1.62c-0.22,0.5-0.52,0.94-0.91,1.31c-0.39,0.38-0.84,0.67-1.36,0.88 c-0.52,0.21-1.08,0.31-1.69,0.31c-0.61,0-1.17-0.1-1.69-0.31c-0.52-0.21-0.97-0.5-1.36-0.88c-0.39-0.38-0.69-0.81-0.9-1.31 c-0.22-0.5-0.32-1.04-0.32-1.62c0-0.58,0.11-1.13,0.32-1.62c0.22-0.5,0.52-0.93,0.9-1.3c0.39-0.37,0.84-0.65,1.36-0.86 C123.48,19.12,124.04,19.02,124.65,19.02z M124.67,20.53c-0.33,0-0.65,0.06-0.95,0.19c-0.3,0.13-0.56,0.31-0.79,0.55 c-0.22,0.24-0.4,0.51-0.53,0.82c-0.13,0.31-0.19,0.65-0.19,1.01c0,0.36,0.06,0.7,0.19,1.02c0.13,0.32,0.31,0.59,0.54,0.83 c0.23,0.24,0.49,0.43,0.79,0.56c0.3,0.13,0.61,0.2,0.95,0.2c0.33,0,0.65-0.07,0.94-0.2c0.29-0.13,0.55-0.32,0.77-0.56 c0.22-0.24,0.39-0.52,0.52-0.83c0.13-0.31,0.19-0.65,0.19-1.02c0-0.36-0.06-0.7-0.19-1.01c-0.13-0.31-0.3-0.58-0.52-0.82 c-0.22-0.24-0.48-0.42-0.77-0.55C125.32,20.59,125.01,20.53,124.67,20.53z M125.98,26.61c0.19,0.28,0.4,0.51,0.62,0.68 c0.22,0.17,0.46,0.26,0.7,0.26c0.19,0,0.41-0.06,0.65-0.17c0.25-0.11,0.5-0.26,0.75-0.46l0.65,1.13c-0.3,0.28-0.66,0.5-1.06,0.65 c-0.41,0.16-0.8,0.23-1.19,0.23c-0.55,0-1.05-0.16-1.5-0.49c-0.46-0.33-0.82-0.77-1.09-1.33L125.98,26.61z"></path> <path class="st1" d="M136.63,19.13c0.62,0,1.19,0.1,1.7,0.29c0.51,0.19,0.95,0.47,1.33,0.82c0.37,0.35,0.66,0.77,0.87,1.26 c0.2,0.49,0.31,1.02,0.31,1.62c0,0.58-0.1,1.12-0.31,1.61c-0.2,0.49-0.5,0.91-0.88,1.26c-0.38,0.36-0.83,0.63-1.35,0.83 c-0.52,0.19-1.09,0.29-1.72,0.29h-3.31v-7.97H136.63z M136.67,25.63c0.34,0,0.65-0.06,0.93-0.18c0.28-0.12,0.53-0.29,0.73-0.52 c0.21-0.22,0.37-0.49,0.48-0.79c0.11-0.3,0.17-0.64,0.17-1.01c0-0.37-0.06-0.71-0.18-1.02c-0.12-0.31-0.29-0.58-0.5-0.81 c-0.21-0.23-0.46-0.41-0.76-0.53c-0.29-0.12-0.61-0.18-0.96-0.18h-1.54v5.04H136.67z"></path> <path class="st1" d="M144.36,19.13h1.84l3.39,7.97h-1.91l-2.46-6.17l-2.47,6.17h-1.87L144.36,19.13z M142.82,24.1h4.7v1.4h-4.7 V24.1z"></path> <path class="st1" d="M148.96,19.13h1.94l2.17,6.09l2.19-6.09h1.86l-3.16,7.97h-1.86L148.96,19.13z"></path> <path class="st1" d="M157.99,19.13h1.8v6.46h3.4v1.51h-5.2V19.13z"></path> <path class="st1" d="M166.88,19.13h1.84l3.39,7.97h-1.91l-2.46-6.17l-2.47,6.17h-1.87L166.88,19.13z M165.34,24.1h4.7v1.4h-4.7 V24.1z"></path> <path class="st1" d="M171.34,19.13H178v1.48h-2.44v6.49h-1.8v-6.49h-2.42V19.13z"></path> <path class="st1" d="M75.52,30.05h6.19v1.37h-2.26v6.03h-1.67v-6.03h-2.25V30.05z"></path> <path class="st1" d="M82.61,30.05h5.64v1.34h-3.97v1.67h3.56v1.34h-3.56v1.7h4.08v1.34h-5.75V30.05z"></path> <path class="st1" d="M89.12,30.05h1.95l1.54,2.32l1.57-2.32h1.96l-2.45,3.54l2.68,3.86h-2.01l-1.73-2.53l-1.71,2.53h-1.96 l2.66-3.79L89.12,30.05z"></path> <path class="st1" d="M97.29,30.05h1.52l4.03,5.44l-0.43,0.15v-5.58h1.58v7.4h-1.51l-4.03-5.42l0.44-0.15v5.57h-1.6V30.05z"></path> <path class="st1" d="M105.63,30.05h1.67v7.4h-1.67V30.05z"></path> <path class="st1" d="M108.94,30.05h1.67v3.52l3.07-3.52h1.95l-5.01,5.53v1.87h-1.67V30.05z M112.69,32.94l3.11,4.52h-2l-2.22-3.19 L112.69,32.94z"></path> <path class="st1" d="M119.11,30.05h1.71l3.15,7.4h-1.78l-2.28-5.73l-2.29,5.73h-1.73L119.11,30.05z M117.68,34.67h4.37v1.3h-4.37 V34.67z"></path> <path class="st1" d="M127.61,30.05h1.67v7.4h-1.67V30.05z"></path> <path class="st1" d="M130.92,30.05h1.52l4.03,5.44l-0.43,0.15v-5.58h1.58v7.4h-1.51l-4.03-5.42l0.44-0.15v5.57h-1.6V30.05z"></path> <path class="st1" d="M144.13,32.06c-0.26-0.16-0.53-0.3-0.81-0.41c-0.28-0.11-0.55-0.19-0.8-0.25c-0.26-0.06-0.49-0.09-0.69-0.09 c-0.28,0-0.51,0.05-0.68,0.16c-0.17,0.11-0.26,0.27-0.26,0.49c0,0.2,0.07,0.37,0.22,0.5c0.14,0.13,0.33,0.24,0.57,0.32 c0.23,0.08,0.49,0.16,0.77,0.24c0.28,0.08,0.56,0.17,0.84,0.28c0.28,0.11,0.54,0.24,0.77,0.41c0.24,0.17,0.42,0.38,0.56,0.63 c0.14,0.26,0.21,0.58,0.21,0.96c0,0.48-0.13,0.89-0.38,1.22c-0.25,0.33-0.6,0.59-1.04,0.76c-0.44,0.18-0.93,0.26-1.48,0.26 c-0.41,0-0.81-0.05-1.21-0.15c-0.39-0.1-0.77-0.24-1.12-0.42c-0.35-0.18-0.66-0.39-0.95-0.63l0.67-1.31 c0.25,0.23,0.53,0.42,0.84,0.59c0.31,0.17,0.61,0.3,0.93,0.39c0.31,0.09,0.6,0.14,0.86,0.14c0.35,0,0.61-0.07,0.81-0.2 c0.19-0.13,0.29-0.32,0.29-0.57c0-0.21-0.07-0.38-0.21-0.51c-0.14-0.13-0.33-0.23-0.56-0.32c-0.23-0.09-0.49-0.17-0.77-0.24 c-0.28-0.07-0.56-0.16-0.85-0.26c-0.28-0.1-0.54-0.23-0.77-0.39s-0.42-0.36-0.57-0.61c-0.14-0.25-0.22-0.56-0.22-0.94 c0-0.45,0.12-0.84,0.36-1.17c0.24-0.33,0.57-0.58,1-0.76c0.43-0.18,0.93-0.27,1.5-0.27c0.52,0,1.03,0.08,1.52,0.23 c0.49,0.15,0.92,0.35,1.29,0.59L144.13,32.06z"></path> <path class="st1" d="M145.26,30.05h6.19v1.37h-2.26v6.03h-1.67v-6.03h-2.25V30.05z"></path> <path class="st1" d="M152.35,30.05h1.67v7.4h-1.67V30.05z"></path> <path class="st1" d="M154.93,30.05h6.19v1.37h-2.26v6.03h-1.67v-6.03h-2.25V30.05z"></path> <path class="st1" d="M163.55,34.41c0,0.54,0.15,0.97,0.45,1.28c0.3,0.31,0.7,0.47,1.19,0.47c0.48,0,0.87-0.16,1.16-0.47 c0.29-0.31,0.44-0.74,0.44-1.28v-4.36h1.67v4.36c0,0.64-0.13,1.2-0.4,1.68c-0.26,0.48-0.64,0.84-1.13,1.1 c-0.49,0.26-1.07,0.39-1.75,0.39s-1.26-0.13-1.76-0.39c-0.5-0.26-0.88-0.62-1.15-1.1c-0.27-0.48-0.4-1.03-0.4-1.68v-4.36h1.67 V34.41z"></path> <path class="st1" d="M169.24,30.05h6.19v1.37h-2.26v6.03h-1.67v-6.03h-2.25V30.05z"></path> <path class="st1" d="M176.33,30.05H178v7.4h-1.67V30.05z"></path> </g> <g> <rect x="68.07" y="14.32" class="st2" width="0.81" height="27.83"></rect> </g> </g> </svg> 